<svg version="1.1" id="Layer_1" xmlns="http://www.w3.org/2000/svg" xmlns:xlink="http://www.w3.org/1999/xlink" x="0px" y="0px"
	 width="100%" viewBox="0 0 1008 1024" enable-background="new 0 0 1008 1024" xml:space="preserve">
<path fill="#000000" opacity="1.000000" stroke="none" 
	d="
M867.898071,128.649689 
	C878.538147,125.810471 888.753540,122.893661 899.353577,120.906464 
	C901.129822,124.720612 899.388672,128.005936 898.608154,131.252823 
	C896.936279,138.207504 895.140808,145.141693 893.091003,151.993057 
	C891.719482,156.577271 892.250732,160.875397 893.938660,165.154648 
	C901.274658,183.753357 900.842834,203.274582 898.633179,222.382355 
	C892.187927,278.116638 871.952942,329.686523 848.665833,380.204681 
	C835.554077,408.648956 821.294617,436.520721 805.793396,463.713379 
	C787.986023,494.951569 769.130310,525.555481 748.343933,554.955505 
	C735.166870,573.593079 721.856873,592.088135 706.827148,609.295288 
	C704.532288,611.922607 702.253784,614.749023 699.702515,616.916077 
	C694.439697,621.386169 694.059326,626.773743 693.901855,633.005920 
	C693.145996,662.914246 688.709961,692.235718 679.735779,720.888245 
	C670.950928,748.936646 658.282227,775.079468 641.634888,799.161011 
	C623.062256,826.027710 600.754089,849.427185 574.474426,869.085815 
	C547.934631,888.938965 518.950989,903.874146 487.581665,914.229553 
	C480.434570,916.588928 473.221893,919.191772 465.015991,919.550293 
	C511.439636,866.454041 534.793579,805.241272 531.813599,734.691406 
	C528.825684,663.954468 500.781281,604.301147 449.023590,556.641357 
	C400.983948,512.405334 343.477661,489.765350 277.838379,489.364807 
	C212.562698,488.966492 155.374451,510.828796 105.071152,554.504211 
	C104.946434,548.232056 106.988251,543.836182 108.342247,539.508118 
	C120.009315,502.214020 138.112640,468.299377 163.014542,438.161713 
	C186.482147,409.759949 214.253036,386.451569 246.445160,368.354340 
	C278.455658,350.359344 312.604736,338.705627 348.806641,333.156921 
	C361.946716,331.142914 375.239624,329.908936 388.574707,329.774811 
	C391.403870,329.746368 393.792053,329.129242 395.799347,327.091461 
	C414.458038,308.149445 435.580322,292.234589 457.119293,276.778320 
	C487.467926,255.000198 519.102722,235.231445 551.433044,216.617142 
	C572.630554,204.412628 594.400208,193.206375 616.380615,182.399490 
	C636.715698,172.401550 657.263367,162.929413 678.235779,154.411026 
	C712.059753,140.672684 746.574463,129.006973 782.735352,123.136360 
	C804.346375,119.627869 826.064819,118.352417 847.703186,123.587166 
	C851.799622,124.578178 855.641724,126.044342 859.385681,127.867714 
	C862.008728,129.145157 864.639404,129.964142 867.898071,128.649689 
M554.381714,387.928467 
	C552.601868,409.761658 559.165405,429.256958 574.173645,444.652008 
	C601.073853,472.245636 640.259583,476.045044 671.383545,451.619781 
	C698.003418,430.729309 706.055847,394.095306 691.301086,363.879913 
	C690.410400,362.055908 689.844727,360.303772 690.041016,358.165833 
	C690.724609,350.722595 691.276611,343.263763 691.693787,335.800568 
	C692.017029,330.018097 690.879761,329.003815 685.263489,329.475250 
	C678.803528,330.017456 672.348450,330.620026 665.886230,331.132294 
	C663.412781,331.328369 660.940002,331.604279 658.543640,330.411743 
	C646.460388,324.398834 633.618225,322.418518 620.241577,323.313019 
	C600.572388,324.628357 584.496704,333.387726 571.667786,347.869690 
	C561.858215,358.943268 556.203613,372.212982 554.381714,387.928467 
z"/>
<path fill="#000000" opacity="1.000000" stroke="none" 
	d="
M310.001038,640.994812 
	C323.426544,629.868042 338.053192,621.169189 353.189362,613.504639 
	C373.411133,603.264832 394.428070,594.821777 416.502930,589.290405 
	C421.666992,587.996460 426.859467,586.808655 431.996155,585.414673 
	C436.123535,584.294495 436.746338,586.317200 436.023193,589.622925 
	C431.996765,608.029602 426.527100,626.010681 419.442627,643.459961 
	C410.641022,665.138733 399.556885,685.631592 385.991974,704.706177 
	C374.351501,721.074707 360.598602,735.558289 345.098816,748.316223 
	C326.490265,763.632935 305.978546,775.967224 284.113586,786.019714 
	C262.867950,795.787476 240.762787,803.052795 217.883636,807.929504 
	C216.420166,808.241455 214.940948,808.591248 213.425079,807.478455 
	C212.639832,804.831848 214.082504,802.414856 214.611023,799.886902 
	C219.960190,774.301575 229.068069,749.988464 240.689392,726.699524 
	C256.392273,695.231262 277.080414,667.464539 304.483124,645.046997 
	C306.155334,643.678955 307.977020,642.493652 310.001038,640.994812 
z"/>
<path fill="#000000" opacity="1.000000" stroke="none" 
	d="
M427.197388,744.115845 
	C446.499969,733.970337 466.172638,725.845581 487.529877,720.716980 
	C487.921234,725.943298 486.568970,730.075500 485.289398,734.096436 
	C474.131927,769.157898 457.118042,800.855957 430.937714,827.127747 
	C414.695709,843.426575 395.902954,856.239441 375.281006,866.310730 
	C361.212921,873.181335 346.622314,878.825073 331.493958,882.955383 
	C329.695892,883.446289 327.467102,884.923035 325.871704,883.130737 
	C324.365601,881.438843 325.842316,879.336487 326.333191,877.477112 
	C334.686554,845.836975 348.940216,817.086304 369.458588,791.623230 
	C384.323273,773.176392 402.433136,758.359680 423.037476,746.627747 
	C424.337891,745.887268 425.602844,745.084534 427.197388,744.115845 
z"/>
<path fill="#000000" opacity="1.000000" stroke="none" 
	d="
M268.310608,543.206299 
	C278.658630,539.030640 288.747711,535.339050 299.299164,533.497131 
	C300.885376,535.822876 300.234589,537.749329 299.679779,539.643250 
	C290.608673,570.609070 277.396942,599.611328 257.021393,624.801697 
	C235.777313,651.065857 208.775070,669.928040 177.892426,683.356384 
	C166.579895,688.275330 155.057114,692.595398 143.015457,695.402344 
	C137.969925,696.578430 137.247742,695.880859 138.594818,690.945007 
	C147.107864,659.751953 160.707199,631.143616 181.030945,605.774170 
	C204.226212,576.820374 233.767319,556.899414 268.310608,543.206299 
z"/>
</svg>